<svg xmlns="http://www.w3.org/2000/svg" xmlns:xlink="http://www.w3.org/1999/xlink" width="500" zoomAndPan="magnify" viewBox="0 0 375 374.999991" height="500" preserveAspectRatio="xMidYMid meet" version="1.0"><defs><g/><clipPath id="5ddb3d7460"><rect x="0" width="90" y="0" height="171"/></clipPath><clipPath id="41dd92243d"><path d="M 0.761719 155 L 182 155 L 182 175 L 0.761719 175 Z M 0.761719 155 " clip-rule="nonzero"/></clipPath><clipPath id="f2433de19d"><path d="M 10 0.71875 L 30 0.71875 L 30 179 L 10 179 Z M 10 0.71875 " clip-rule="nonzero"/></clipPath><clipPath id="cacadf80c6"><rect x="0" width="184" y="0" height="180"/></clipPath><clipPath id="730bfb287a"><path d="M 154 1 L 174 1 L 174 179.398438 L 154 179.398438 Z M 154 1 " clip-rule="nonzero"/></clipPath><clipPath id="a77f79b476"><rect x="0" width="184" y="0" height="180"/></clipPath></defs><g transform="matrix(1, 0, 0, 1, 141, 118)"><g clip-path="url(#5ddb3d7460)"><g fill="#000000" fill-opacity="1"><g transform="translate(0.899685, 122.780072)"><g><path d="M 8.21875 -112.953125 L 49.421875 -112.953125 C 60.921875 -112.953125 70.226562 -109.984375 77.34375 -104.046875 C 84.46875 -98.117188 88.03125 -89.492188 88.03125 -78.171875 C 88.03125 -66.859375 84.425781 -57.984375 77.21875 -51.546875 C 70.007812 -45.109375 60.742188 -41.890625 49.421875 -41.890625 L 33.953125 -41.890625 L 33.953125 0 L 8.21875 0 Z M 33.953125 -62.421875 L 41.203125 -62.421875 C 46.953125 -62.421875 51.675781 -63.582031 55.375 -65.90625 C 59.070312 -68.238281 60.921875 -72.054688 60.921875 -77.359375 C 60.921875 -82.734375 59.070312 -86.582031 55.375 -88.90625 C 51.675781 -91.238281 46.953125 -92.40625 41.203125 -92.40625 L 33.953125 -92.40625 Z M 33.953125 -62.421875 "/></g></g></g></g></g><g transform="matrix(1, 0, 0, 1, 59, 120)"><g clip-path="url(#cacadf80c6)"><g clip-path="url(#41dd92243d)"><path stroke-linecap="butt" transform="matrix(1.916862, 0, 0, 1.916862, 10.511077, 155.010071)" fill="none" stroke-linejoin="miter" d="M 0.000335013 4.999672 L 84.433995 4.999672 " stroke="#292929" stroke-width="10" stroke-opacity="1" stroke-miterlimit="4"/></g><g clip-path="url(#f2433de19d)"><path stroke-linecap="butt" transform="matrix(0, 1.916862, -1.916862, 0, 29.669869, 10.367028)" fill="none" stroke-linejoin="miter" d="M 0.000083418 4.999803 L 82.46316 4.999803 " stroke="#292929" stroke-width="10" stroke-opacity="1" stroke-miterlimit="4"/></g></g></g><g transform="matrix(1, 0, 0, 1, 139, 75)"><g clip-path="url(#a77f79b476)"><path stroke-linecap="butt" transform="matrix(-1.916862, 0, 0, -1.916862, 173.270306, 24.984837)" fill="none" stroke-linejoin="miter" d="M 0.000403965 4.999053 L 84.434064 4.999053 " stroke="#292929" stroke-width="10" stroke-opacity="1" stroke-miterlimit="4"/><g clip-path="url(#730bfb287a)"><path stroke-linecap="butt" transform="matrix(0, -1.916862, 1.916862, 0, 154.111529, 169.62788)" fill="none" stroke-linejoin="miter" d="M -0.000535414 4.999726 L 82.462542 4.999726 " stroke="#292929" stroke-width="10" stroke-opacity="1" stroke-miterlimit="4"/></g></g></g></svg>