<svg xmlns="http://www.w3.org/2000/svg" xmlns:xlink="http://www.w3.org/1999/xlink" width="500" zoomAndPan="magnify" viewBox="0 0 375 149.999998" height="200" preserveAspectRatio="xMidYMid meet" version="1.0"><defs><g/><clipPath id="7153c96073"><rect x="0" width="274" y="0" height="92"/></clipPath><clipPath id="0d581b883f"><path d="M 0.519531 83 L 98 83 L 98 94 L 0.519531 94 Z M 0.519531 83 " clip-rule="nonzero"/></clipPath><clipPath id="2293bd3cb1"><path d="M 5 0.519531 L 16 0.519531 L 16 96 L 5 96 Z M 5 0.519531 " clip-rule="nonzero"/></clipPath><clipPath id="4976e9657f"><rect x="0" width="99" y="0" height="97"/></clipPath><clipPath id="81091196ee"><path d="M 82 1 L 93 1 L 93 96.480469 L 82 96.480469 Z M 82 1 " clip-rule="nonzero"/></clipPath><clipPath id="871384b2b8"><rect x="0" width="99" y="0" height="97"/></clipPath></defs><g transform="matrix(1, 0, 0, 1, 49, 29)"><g clip-path="url(#7153c96073)"><g fill="#ffffff" fill-opacity="1"><g transform="translate(0.744854, 65.845563)"><g><path d="M 43.0625 -32.921875 C 46.582031 -29.085938 48.34375 -24.382812 48.34375 -18.8125 C 48.34375 -13.25 46.582031 -8.539062 43.0625 -4.6875 C 39.550781 -0.832031 35.085938 1.09375 29.671875 1.09375 C 24.679688 1.09375 20.578125 -0.46875 17.359375 -3.59375 L 17.359375 19.046875 L 4.390625 19.046875 L 4.390625 -37.578125 L 17.21875 -37.578125 L 17.21875 -33.328125 L 17.359375 -33.328125 C 20.578125 -36.890625 24.679688 -38.671875 29.671875 -38.671875 C 35.085938 -38.671875 39.550781 -36.753906 43.0625 -32.921875 Z M 32.046875 -12.453125 C 33.734375 -14.109375 34.578125 -16.226562 34.578125 -18.8125 C 34.578125 -21.40625 33.769531 -23.519531 32.15625 -25.15625 C 30.539062 -26.789062 28.414062 -27.609375 25.78125 -27.609375 C 23.238281 -27.609375 21.148438 -26.78125 19.515625 -25.125 C 17.878906 -23.46875 17.0625 -21.367188 17.0625 -18.828125 C 17.0625 -16.234375 17.90625 -14.109375 19.59375 -12.453125 C 21.28125 -10.796875 23.34375 -9.96875 25.78125 -9.96875 C 28.269531 -9.96875 30.359375 -10.796875 32.046875 -12.453125 Z M 32.046875 -12.453125 "/></g></g></g><g fill="#ffffff" fill-opacity="1"><g transform="translate(44.535099, 65.845563)"><g><path d="M 4.390625 0 L 4.390625 -63 L 17.359375 -63 L 17.359375 -33.625 L 17.5 -33.625 C 20.875 -36.988281 24.46875 -38.671875 28.28125 -38.671875 C 30.132812 -38.671875 31.972656 -38.425781 33.796875 -37.9375 C 35.628906 -37.457031 37.390625 -36.703125 39.078125 -35.671875 C 40.765625 -34.648438 42.128906 -33.195312 43.171875 -31.3125 C 44.222656 -29.4375 44.75 -27.253906 44.75 -24.765625 L 44.75 0 L 31.796875 0 L 31.796875 -21.25 C 31.796875 -23.195312 31.171875 -24.898438 29.921875 -26.359375 C 28.679688 -27.828125 27.054688 -28.5625 25.046875 -28.5625 C 23.097656 -28.5625 21.328125 -27.804688 19.734375 -26.296875 C 18.148438 -24.785156 17.359375 -23.101562 17.359375 -21.25 L 17.359375 0 Z M 4.390625 0 "/></g></g></g><g fill="#ffffff" fill-opacity="1"><g transform="translate(86.714263, 65.845563)"><g><path d="M 5.640625 -58.515625 C 7.148438 -60.035156 8.953125 -60.796875 11.046875 -60.796875 C 13.148438 -60.796875 14.957031 -60.035156 16.46875 -58.515625 C 17.988281 -57.003906 18.75 -55.195312 18.75 -53.09375 C 18.75 -51 17.988281 -49.195312 16.46875 -47.6875 C 14.957031 -46.175781 13.148438 -45.421875 11.046875 -45.421875 C 8.953125 -45.421875 7.148438 -46.175781 5.640625 -47.6875 C 4.128906 -49.195312 3.375 -51 3.375 -53.09375 C 3.375 -55.195312 4.128906 -57.003906 5.640625 -58.515625 Z M 4.390625 -37.578125 L 4.390625 0 L 17.359375 0 L 17.359375 -37.578125 Z M 4.390625 -37.578125 "/></g></g></g><g fill="#ffffff" fill-opacity="1"><g transform="translate(102.603553, 65.845563)"><g><path d="M 4.390625 0 L 4.390625 -63 L 17.359375 -63 L 17.359375 0 Z M 4.390625 0 "/></g></g></g><g fill="#ffffff" fill-opacity="1"><g transform="translate(118.126678, 65.845563)"><g><path d="M 6.59375 -37.578125 L 6.59375 -51.5625 L 19.5625 -51.5625 L 19.5625 -37.578125 L 27.46875 -37.578125 L 27.46875 -27.6875 L 19.5625 -27.6875 L 19.5625 -15.75 C 19.5625 -12.28125 20.535156 -10.546875 22.484375 -10.546875 C 22.972656 -10.546875 23.484375 -10.644531 24.015625 -10.84375 C 24.554688 -11.039062 24.972656 -11.234375 25.265625 -11.421875 L 25.703125 -11.71875 L 28.9375 -1.25 C 26.15625 0.3125 22.976562 1.09375 19.40625 1.09375 C 16.96875 1.09375 14.867188 0.664062 13.109375 -0.1875 C 11.347656 -1.039062 10.015625 -2.1875 9.109375 -3.625 C 8.210938 -5.0625 7.566406 -6.570312 7.171875 -8.15625 C 6.785156 -9.75 6.59375 -11.453125 6.59375 -13.265625 L 6.59375 -27.6875 L 1.171875 -27.6875 L 1.171875 -37.578125 Z M 6.59375 -37.578125 "/></g></g></g><g fill="#ffffff" fill-opacity="1"><g transform="translate(140.826424, 65.845563)"><g><path d="M 42.40625 -17 L 15.15625 -17 C 15.15625 -14.351562 16.007812 -12.394531 17.71875 -11.125 C 19.4375 -9.863281 21.296875 -9.234375 23.296875 -9.234375 C 25.390625 -9.234375 27.046875 -9.515625 28.265625 -10.078125 C 29.492188 -10.640625 30.890625 -11.75 32.453125 -13.40625 L 41.828125 -8.71875 C 37.921875 -2.175781 31.425781 1.09375 22.34375 1.09375 C 16.675781 1.09375 11.816406 -0.84375 7.765625 -4.71875 C 3.710938 -8.601562 1.6875 -13.28125 1.6875 -18.75 C 1.6875 -24.21875 3.710938 -28.90625 7.765625 -32.8125 C 11.816406 -36.71875 16.675781 -38.671875 22.34375 -38.671875 C 28.300781 -38.671875 33.144531 -36.945312 36.875 -33.5 C 40.613281 -30.0625 42.484375 -25.144531 42.484375 -18.75 C 42.484375 -17.875 42.457031 -17.289062 42.40625 -17 Z M 15.53125 -24.171875 L 29.8125 -24.171875 C 29.519531 -26.128906 28.75 -27.628906 27.5 -28.671875 C 26.257812 -29.722656 24.660156 -30.25 22.703125 -30.25 C 20.554688 -30.25 18.847656 -29.6875 17.578125 -28.5625 C 16.304688 -27.4375 15.625 -25.972656 15.53125 -24.171875 Z M 15.53125 -24.171875 "/></g></g></g><g fill="#ffffff" fill-opacity="1"><g transform="translate(178.758195, 65.845563)"><g><path d="M 24.390625 -28.0625 C 21.953125 -28.0625 19.851562 -27.15625 18.09375 -25.34375 C 16.332031 -23.539062 15.453125 -21.367188 15.453125 -18.828125 C 15.453125 -16.234375 16.332031 -14.03125 18.09375 -12.21875 C 19.851562 -10.414062 21.953125 -9.515625 24.390625 -9.515625 C 25.566406 -9.515625 26.675781 -9.660156 27.71875 -9.953125 C 28.769531 -10.253906 29.539062 -10.550781 30.03125 -10.84375 L 30.6875 -11.28125 L 35.09375 -2.265625 C 34.75 -2.023438 34.269531 -1.722656 33.65625 -1.359375 C 33.050781 -0.992188 31.660156 -0.492188 29.484375 0.140625 C 27.304688 0.773438 24.972656 1.09375 22.484375 1.09375 C 16.960938 1.09375 12.113281 -0.84375 7.9375 -4.71875 C 3.769531 -8.601562 1.6875 -13.253906 1.6875 -18.671875 C 1.6875 -24.140625 3.769531 -28.835938 7.9375 -32.765625 C 12.113281 -36.703125 16.960938 -38.671875 22.484375 -38.671875 C 24.972656 -38.671875 27.265625 -38.378906 29.359375 -37.796875 C 31.460938 -37.210938 32.957031 -36.625 33.84375 -36.03125 L 35.09375 -35.15625 L 30.6875 -26.296875 C 29.082031 -27.472656 26.984375 -28.0625 24.390625 -28.0625 Z M 24.390625 -28.0625 "/></g></g></g><g fill="#ffffff" fill-opacity="1"><g transform="translate(208.488113, 65.845563)"><g><path d="M 4.390625 0 L 4.390625 -63 L 17.359375 -63 L 17.359375 -33.625 L 17.5 -33.625 C 20.875 -36.988281 24.46875 -38.671875 28.28125 -38.671875 C 30.132812 -38.671875 31.972656 -38.425781 33.796875 -37.9375 C 35.628906 -37.457031 37.390625 -36.703125 39.078125 -35.671875 C 40.765625 -34.648438 42.128906 -33.195312 43.171875 -31.3125 C 44.222656 -29.4375 44.75 -27.253906 44.75 -24.765625 L 44.75 0 L 31.796875 0 L 31.796875 -21.25 C 31.796875 -23.195312 31.171875 -24.898438 29.921875 -26.359375 C 28.679688 -27.828125 27.054688 -28.5625 25.046875 -28.5625 C 23.097656 -28.5625 21.328125 -27.804688 19.734375 -26.296875 C 18.148438 -24.785156 17.359375 -23.101562 17.359375 -21.25 L 17.359375 0 Z M 4.390625 0 "/></g></g></g><g fill="#ffffff" fill-opacity="1"><g transform="translate(250.667277, 65.845563)"><g><path d="M 12.75 -15.671875 C 15.09375 -15.671875 17.082031 -14.851562 18.71875 -13.21875 C 20.351562 -11.582031 21.171875 -9.59375 21.171875 -7.25 C 21.171875 -4.957031 20.351562 -2.992188 18.71875 -1.359375 C 17.082031 0.273438 15.09375 1.09375 12.75 1.09375 C 10.445312 1.09375 8.476562 0.273438 6.84375 -1.359375 C 5.207031 -2.992188 4.390625 -4.957031 4.390625 -7.25 C 4.390625 -9.59375 5.207031 -11.582031 6.84375 -13.21875 C 8.476562 -14.851562 10.445312 -15.671875 12.75 -15.671875 Z M 12.75 -15.671875 "/></g></g></g></g></g><g transform="matrix(1, 0, 0, 1, 5, 47)"><g clip-path="url(#4976e9657f)"><g clip-path="url(#0d581b883f)"><path stroke-linecap="butt" transform="matrix(1.025573, 0, 0, 1.025573, 5.66948, 83.210643)" fill="none" stroke-linejoin="miter" d="M -0.00147398 5.001303 L 84.433052 5.001303 " stroke="#ffffff" stroke-width="10" stroke-opacity="1" stroke-miterlimit="4"/></g><g clip-path="url(#2293bd3cb1)"><path stroke-linecap="butt" transform="matrix(0, 1.025573, -1.025573, 0, 15.91995, 5.822719)" fill="none" stroke-linejoin="miter" d="M 0.00146259 4.99914 L 82.463005 4.99914 " stroke="#ffffff" stroke-width="10" stroke-opacity="1" stroke-miterlimit="4"/></g></g></g><g transform="matrix(1, 0, 0, 1, 255, 6)"><g clip-path="url(#871384b2b8)"><path stroke-linecap="butt" transform="matrix(-1.025573, 0, 0, -1.025573, 92.863783, 13.784957)" fill="none" stroke-linejoin="miter" d="M 0.000489076 5.000822 L 84.435015 5.000822 " stroke="#ffffff" stroke-width="10" stroke-opacity="1" stroke-miterlimit="4"/><g clip-path="url(#81091196ee)"><path stroke-linecap="butt" transform="matrix(0, -1.025573, 1.025573, 0, 82.613304, 91.172881)" fill="none" stroke-linejoin="miter" d="M 0.000981044 5.000994 L 82.462524 5.000994 " stroke="#ffffff" stroke-width="10" stroke-opacity="1" stroke-miterlimit="4"/></g></g></g></svg>